<?xml version="1.0" standalone="no"?>
<!DOCTYPE svg PUBLIC "-//W3C//DTD SVG 20010904//EN"
 "http://www.w3.org/TR/2001/REC-SVG-20010904/DTD/svg10.dtd">
<svg version="1.0" xmlns="http://www.w3.org/2000/svg"
 width="542.000000pt" height="132.000000pt" viewBox="0 0 542.000000 132.000000"
 preserveAspectRatio="xMidYMid meet">

<g transform="translate(0.000000,132.000000) scale(0.100000,-0.100000)"
fill="#000000" stroke="none">
<path d="M4145 1280 c-6 -12 -269 -245 -585 -520 l-575 -500 -442 0 -441 0
-214 186 c-117 102 -214 194 -216 205 -4 23 -57 27 -65 5 -3 -7 -104 -99 -225
-205 -210 -182 -222 -191 -262 -191 -39 0 -52 9 -256 187 -118 102 -214 192
-214 200 0 20 -49 16 -68 -6 -10 -11 -111 -101 -226 -200 l-209 -181 -63 0
-64 0 0 -30 0 -29 83 -3 82 -3 3 -88 3 -87 -87 0 c-48 0 -85 -3 -81 -6 7 -8
5388 -6 5395 1 3 3 -229 5 -516 5 -487 0 -521 1 -526 18 -7 24 -26 133 -26
149 0 11 99 13 535 13 l535 0 0 30 c0 24 -4 30 -22 30 -25 1 -1180 1000 -1186
1026 -5 22 -56 17 -67 -6z m5 -69 l0 -40 -520 -453 -521 -453 -52 -3 -52 -3
40 34 c22 19 279 242 570 496 292 253 531 461 533 461 1 0 2 -18 2 -39z m635
-455 c297 -258 547 -475 555 -483 12 -11 7 -13 -32 -13 l-47 0 -525 452 -526
452 0 44 c0 41 1 43 17 31 10 -8 261 -225 558 -483z m-635 350 l0 -43 -461
-402 -461 -401 -52 0 -51 0 40 34 c22 19 252 219 510 445 259 225 471 410 473
410 1 1 2 -19 2 -43z m594 -421 l489 -420 -62 -3 c-53 -3 -66 0 -89 20 -15 13
-217 191 -450 396 l-422 374 0 45 0 44 23 -18 c13 -10 243 -207 511 -438z
m-631 252 c-21 -19 -204 -179 -407 -356 -354 -308 -371 -321 -410 -321 -40 0
-40 0 -21 19 11 11 211 186 445 390 l425 370 3 -34 c3 -29 -3 -39 -35 -68z
m580 -332 c373 -330 384 -340 351 -343 -30 -3 -44 5 -112 66 -42 38 -221 194
-397 347 -311 271 -320 279 -323 318 l-3 40 50 -44 c27 -24 222 -197 434 -384z
m-543 300 c0 -33 -16 -48 -352 -340 -336 -291 -354 -305 -392 -305 -38 0 -39
1 -23 18 38 38 753 660 760 661 4 1 7 -15 7 -34z m459 -314 l374 -326 -53 -3
c-51 -3 -55 -1 -99 41 -25 24 -175 162 -333 306 -255 232 -288 266 -288 292 0
22 4 28 13 23 6 -5 180 -154 386 -333z m-49 -61 c129 -117 248 -226 265 -242
l30 -28 -56 0 -56 0 -209 233 c-115 127 -227 252 -249 277 l-39 45 39 -36 c22
-19 146 -132 275 -249z m-456 10 c-18 -135 -33 -253 -34 -262 0 -16 -13 -18
-131 -18 -72 0 -129 4 -127 8 7 20 320 523 323 520 1 -2 -12 -113 -31 -248z
m-65 203 c-18 -21 -127 -138 -243 -260 l-210 -223 -59 0 -59 0 113 98 c62 53
196 170 298 259 102 89 188 162 190 162 1 1 -12 -16 -30 -36z m339 -230 c78
-132 142 -244 142 -247 0 -3 -42 -6 -94 -6 -81 0 -95 2 -100 18 -3 9 -24 114
-46 232 -23 118 -44 224 -47 235 -9 31 -5 25 145 -232z m71 -20 l170 -233 -37
0 -38 0 -124 212 c-128 216 -157 267 -147 258 3 -3 82 -110 176 -237z m-391
205 c-8 -13 -73 -116 -143 -230 l-128 -208 -39 0 -40 0 64 83 c35 45 115 148
177 230 63 81 116 147 118 147 3 0 -1 -10 -9 -22z m423 -170 c95 -106 188
-210 208 -231 l35 -37 -44 0 c-43 1 -47 3 -86 58 -22 31 -97 135 -167 230 -70
94 -125 172 -123 172 3 0 82 -87 177 -192z m-524 80 c-35 -46 -109 -143 -166
-215 -101 -132 -102 -133 -143 -133 l-41 0 59 63 c33 34 124 131 203 215 79
83 146 152 148 152 2 0 -25 -37 -60 -82z m268 -128 c20 -102 39 -193 41 -202
5 -16 -3 -18 -67 -18 l-72 0 6 37 c3 21 16 113 28 206 12 92 23 166 24 165 2
-2 19 -86 40 -188z m-3647 75 c-7 -7 -86 -76 -176 -154 -136 -118 -168 -141
-195 -141 l-32 0 25 24 c14 13 106 95 205 180 169 147 180 155 183 130 2 -15
-2 -32 -10 -39z m1032 40 c0 -19 -37 -57 -176 -177 -148 -129 -182 -154 -212
-156 -20 -2 -33 0 -29 5 33 33 404 352 410 352 4 1 7 -10 7 -24z m-755 -160
c88 -76 169 -147 180 -157 20 -19 20 -19 -17 -16 -30 3 -62 26 -202 148 -145
126 -166 148 -166 174 l0 29 23 -20 c12 -11 94 -82 182 -158z m1033 -9 c100
-87 182 -160 182 -162 0 -2 -13 -4 -29 -4 -24 0 -63 29 -198 146 -138 121
-169 152 -171 176 -4 38 -15 46 216 -156z m-280 76 c-2 -11 -61 -69 -131 -131
-113 -98 -133 -111 -165 -111 l-37 0 50 43 c28 24 102 89 165 144 110 96 127
104 118 55z m-1060 -57 c-25 -22 -83 -73 -131 -113 -74 -63 -91 -73 -118 -70
-31 3 -28 7 127 141 154 134 159 138 162 110 3 -23 -5 -36 -40 -68z m262 -50
c69 -60 132 -114 140 -122 12 -11 9 -13 -22 -13 -33 0 -51 13 -158 105 -105
93 -120 110 -120 137 0 29 1 30 18 16 9 -8 73 -63 142 -123z m1028 -3 c78 -69
142 -126 142 -128 0 -2 -15 -4 -32 -4 -27 0 -54 18 -155 106 -106 91 -123 110
-123 136 0 37 -6 41 168 -110z m-1285 -30 c-116 -101 -121 -103 -156 -100
l-35 3 112 96 111 97 3 -32 c3 -25 -3 -37 -35 -64z m985 -25 c-74 -68 -98 -81
-139 -75 -19 2 -5 19 92 102 113 98 114 99 117 70 3 -25 -6 -38 -70 -97z
m-678 -73 c0 -2 -15 -4 -34 -4 -28 0 -48 12 -105 61 -62 54 -71 66 -71 96 l0
34 105 -92 c58 -50 105 -93 105 -95z m987 34 l43 -38 -38 0 c-31 0 -49 10
-109 62 -64 55 -73 67 -73 97 l0 33 68 -58 c37 -32 86 -75 109 -96z m-1257 17
l0 -55 -66 0 -65 0 63 55 c34 30 64 55 65 55 2 0 3 -25 3 -55z m1020 0 l0 -55
-67 0 -68 0 60 55 c33 30 63 54 68 55 4 0 7 -25 7 -55z m-854 -46 c3 -5 -20
-9 -50 -9 l-56 0 0 51 0 51 50 -42 c27 -23 52 -46 56 -51z m991 29 l43 -38
-60 0 -60 0 0 51 c0 58 -3 59 77 -13z m-1157 -188 l0 -90 -170 0 -170 0 0 90
0 90 170 0 170 0 0 -90z m368 -2 l3 -88 -156 0 -155 0 0 90 0 91 153 -3 152
-3 3 -87z m310 0 l3 -88 -126 0 -125 0 0 90 0 91 123 -3 122 -3 3 -87z m340 0
l3 -88 -141 0 -140 0 0 90 0 91 138 -3 137 -3 3 -87z m310 0 l3 -88 -126 0
-125 0 0 90 0 91 123 -3 122 -3 3 -87z m310 0 l3 -88 -126 0 -125 0 0 90 0 91
123 -3 122 -3 3 -87z m252 2 l0 -90 -95 0 -95 0 0 90 0 90 95 0 95 0 0 -90z
m250 0 l0 -90 -95 0 -95 0 0 90 0 90 95 0 95 0 0 -90z m1323 83 c5 -8 -7 -101
-18 -150 l-5 -23 -620 0 -620 0 0 83 c0 46 3 87 7 90 9 10 1251 9 1256 0z
m232 -5 c2 -7 11 -48 18 -90 l15 -78 -113 0 -112 0 13 83 c8 45 14 85 14 90 0
13 160 8 165 -5z"/>
</g>
</svg>
